HIERARCHY
ROOT Hips
{
	OFFSET 0.00000 0.00000 0.00000
	CHANNELS 6 Xposition Yposition Zposition Zrotation Yrotation Xrotation 
	JOINT LHipJoint
	{
		OFFSET 0 0 0
		CHANNELS 3 Zrotation Yrotation Xrotation
		JOINT LeftUpLeg
		{
			OFFSET 1.27966 -1.91611 0.81506
			CHANNELS 3 Zrotation Yrotation Xrotation
			JOINT LeftLeg
			{
				OFFSET 2.49511 -6.85528 0.00000
				CHANNELS 3 Zrotation Yrotation Xrotation
				JOINT LeftFoot
				{
					OFFSET 2.67286 -7.34045 0.00000
					CHANNELS 3 Zrotation Yrotation Xrotation
					JOINT LeftToeBase
					{
						OFFSET 0.22740 -0.62477 2.32102
						CHANNELS 3 Zrotation Yrotation Xrotation
						End Site
						{
							OFFSET 0.00000 -0.00000 1.20480
						}
					}
				}
			}
		}
	}
	JOINT RHipJoint
	{
		OFFSET 0 0 0
		CHANNELS 3 Zrotation Yrotation Xrotation
		JOINT RightUpLeg
		{
			OFFSET -1.09666 -1.91611 0.81505
			CHANNELS 3 Zrotation Yrotation Xrotation
			JOINT RightLeg
			{
				OFFSET -2.51373 -6.90642 0.00000
				CHANNELS 3 Zrotation Yrotation Xrotation
				JOINT RightFoot
				{
					OFFSET -2.70173 -7.42295 0.00000
					CHANNELS 3 Zrotation Yrotation Xrotation
					JOINT RightToeBase
					{
						OFFSET -0.22214 -0.61032 2.18267
						CHANNELS 3 Zrotation Yrotation Xrotation
						End Site
						{
							OFFSET -0.00000 -0.00000 1.13683
						}
					}
				}
			}
		}
	}
	JOINT LowerBack
	{
		OFFSET 0 0 0
		CHANNELS 3 Zrotation Yrotation Xrotation
		JOINT Spine
		{
			OFFSET -0.00990 2.16804 -0.08389
			CHANNELS 3 Zrotation Yrotation Xrotation
			JOINT Spine1
			{
				OFFSET 0.06407 2.15456 0.07285
				CHANNELS 3 Zrotation Yrotation Xrotation
				JOINT Neck
				{
					OFFSET 0 0 0
					CHANNELS 3 Zrotation Yrotation Xrotation
					JOINT Neck1
					{
						OFFSET -0.16931 1.61602 0.24462
						CHANNELS 3 Zrotation Yrotation Xrotation
						JOINT Head
						{
							OFFSET 0.21556 1.63376 -0.33896
							CHANNELS 3 Zrotation Yrotation Xrotation
							End Site
							{
								OFFSET 0.08444 1.69244 -0.14900
							}
						}
					}
				}
				JOINT LeftShoulder
				{
					OFFSET 0 0 0
					CHANNELS 3 Zrotation Yrotation Xrotation
					JOINT LeftArm
					{
						OFFSET 2.89000 1.40150 -0.54392
						CHANNELS 3 Zrotation Yrotation Xrotation
						JOINT LeftForeArm
						{
							OFFSET 5.10755 -0.00000 0.00000
							CHANNELS 3 Zrotation Yrotation Xrotation
							JOINT LeftHand
							{
								OFFSET 3.36253 -0.00000 0.00000
								CHANNELS 3 Zrotation Yrotation Xrotation
								JOINT LeftFingerBase
								{
									OFFSET 0 0 0
									CHANNELS 3 Zrotation Yrotation Xrotation
									JOINT LeftHandIndex1
									{
										OFFSET 0.61909 -0.00000 0.00000
										CHANNELS 3 Zrotation Yrotation Xrotation
										End Site
										{
											OFFSET 0.49912 -0.00000 0.00000
										}
									}
								}
								JOINT LThumb
								{
									OFFSET 0 0 0
									CHANNELS 3 Zrotation Yrotation Xrotation
									End Site
									{
										OFFSET 0.50675 -0.00000 0.50675
									}
								}
							}
						}
					}
				}
				JOINT RightShoulder
				{
					OFFSET 0 0 0
					CHANNELS 3 Zrotation Yrotation Xrotation
					JOINT RightArm
					{
						OFFSET -2.65771 1.70968 -0.54312
						CHANNELS 3 Zrotation Yrotation Xrotation
						JOINT RightForeArm
						{
							OFFSET -5.27387 -0.00000 0.00000
							CHANNELS 3 Zrotation Yrotation Xrotation
							JOINT RightHand
							{
								OFFSET -3.40144 -0.00000 0.00000
								CHANNELS 3 Zrotation Yrotation Xrotation
								JOINT RightFingerBase
								{
									OFFSET 0 0 0
									CHANNELS 3 Zrotation Yrotation Xrotation
									JOINT RightHandIndex1
									{
										OFFSET -0.74282 -0.00000 0.00000
										CHANNELS 3 Zrotation Yrotation Xrotation
										End Site
										{
											OFFSET -0.59888 -0.00000 0.00000
										}
									}
								}
								JOINT RThumb
								{
									OFFSET 0 0 0
									CHANNELS 3 Zrotation Yrotation Xrotation
									End Site
									{
										OFFSET -0.60803 -0.00000 0.60803
									}
								}
							}
						}
					}
				}
			}
		}
	}
}
MOTION
Frames: 16
Frame Time: 0.011976
0.00 0.00 0.00 0 0 0 0 0 0 -21 0 0 0 0 0 0 0 0 0 0 0 0 0 0 21 0 0 0 0 0 0 0 0 0 0 0 0 0 0 0 0 0 0 0 0 0 0 -16 0 0 21 0 0 11 0 0 0 -8 0 0 0 0 0 0 0 0 0 0 0 0 0 0 0 0 0 0 0 0 8 0 0 0 0 0 0 0 0 0 0 0 0 0 0 0 0 0
0.00 0.00 0.00 -1.8312 4.3686 -2.6014 0.0000 0.0000 0.0000 -18.2322 3.2527 -2.6801 1.3766 7.4247 20.9797 0.3175 -8.7815 -10.9850 0.4093 -4.1071 -11.3782 0.0000 0.0000 0.0000 18.5931 1.3974 -0.6320 -1.4611 -7.6396 21.6247 -0.4172 -4.5922 -14.7584 -0.6050 4.9789 -13.8483 -0.4275 0.1341 6.4720 2.7925 0.3140 -2.7693 3.1276 0.2396 -6.5503 -15.3533 -7.8528 -19.0852 13.2744 -10.0274 23.1936 5.9270 -4.3086 12.3435 0.0000 -0.0000 0.0000 -74.5388 -28.2652 26.9360 77.7038 -59.4209 -49.3719 -0.0000 -0.0000 38.1023 61.4016 25.5564 38.3544 -7.1250 0.0000 -0.0000 52.4742 67.9746 32.2074 0.0000 -0.0000 0.0000 21.3471 59.9369 -2.2968 -56.1932 55.2071 -31.1936 0.0000 0.0000 38.2306 -58.6721 24.5780 -34.3462 7.1250 -0.0000 -0.0000 -16.6425 9.8518 -20.0332
0.00 0.00 0.00 -2.3151 6.1491 -3.0320 0.0000 0.0000 0.0000 -17.0888 0.3290 -1.4172 1.3301 7.3033 20.6171 0.1939 -9.3831 -9.5900 0.0895 -1.9298 -5.3118 0.0000 0.0000 0.0000 19.9573 -0.1784 -0.8054 -1.4767 -7.6783 21.7412 -0.3878 -6.0275 -15.5127 -0.5723 4.8448 -13.4664 -2.9848 -0.2577 6.1200 3.2484 -0.4168 -2.3194 5.1358 -0.0272 -5.8190 -15.9841 -6.4455 -19.6589 11.5875 -7.2695 24.3487 5.9071 -3.3271 12.3726 0.0000 -0.0000 0.0000 -44.3294 -54.3835 35.1377 62.9346 -57.0425 -36.7934 -0.0000 -0.0000 40.9717 59.4703 21.1540 31.4632 -7.1250 0.0000 -0.0000 41.6388 62.3042 19.2632 0.0000 -0.0000 0.0000 69.3046 22.4021 17.6719 -81.3063 59.7125 -52.4783 0.0000 0.0000 39.6824 -56.5288 21.3786 -28.8700 7.1250 -0.0000 -0.0000 -16.4314 4.1286 -18.3187
0.00 0.00 0.00 -2.0297 6.1758 -1.6608 0.0000 0.0000 0.0000 -17.2470 -0.2883 -2.7822 1.3855 7.4478 21.0488 0.2752 -8.4928 -10.3347 0.2494 -3.2137 -8.8742 0.0000 0.0000 0.0000 19.9982 -0.1280 -1.8254 -1.4455 -7.6005 21.5070 -0.4207 -5.8145 -15.7624 -0.5013 4.5389 -12.5978 -3.0448 0.7943 6.9988 2.6115 0.9373 -2.8451 4.3454 0.6665 -7.0207 -17.4788 -6.8550 -18.9517 11.3157 -7.3551 23.7150 6.0118 -3.5436 12.0620 -0.0000 -0.0000 0.0000 -25.4064 -50.2076 -9.1266 65.8791 -57.6832 -39.2731 -0.0000 -0.0000 34.6272 53.3215 22.5058 27.2003 -7.1250 0.0000 -0.0000 31.6847 61.8911 13.7677 -0.0000 -0.0000 0.0000 70.0261 14.2733 17.4622 -81.4062 59.7191 -52.5646 0.0000 0.0000 35.5680 -52.7510 17.3970 -21.4650 7.1250 -0.0000 -0.0000 -15.4165 -3.4397 -15.0273
0.00 0.00 0.00 -1.2153 1.0983 -0.4456 0.0000 0.0000 0.0000 -19.4618 2.4515 -3.9723 1.3194 7.2752 20.5331 0.4564 -5.4578 -12.0622 0.4155 -4.1376 -11.4640 0.0000 0.0000 0.0000 17.8939 3.4952 -3.0936 -1.5972 -7.9712 22.6267 -0.4719 -3.5964 -14.7936 -0.7029 5.3586 -14.9343 -1.2566 0.1087 7.3097 4.2348 0.2838 -2.2033 5.1335 0.2854 -6.4523 -14.1837 -4.4624 -20.4481 8.3146 -3.9243 24.2756 4.8709 -2.0389 11.8183 0.0000 -0.0000 0.0000 -78.6205 -11.9940 24.6188 78.5136 -59.4955 -50.0693 -0.0000 -0.0000 37.2985 62.3246 26.5086 40.3986 -7.1250 0.0000 -0.0000 56.8198 69.1555 36.8420 0.0000 -0.0000 0.0000 55.8475 19.7954 4.0187 -88.3088 59.9892 -58.5354 0.0000 0.0000 34.3255 -56.8796 20.5311 -28.2615 7.1250 -0.0000 -0.0000 -16.8625 3.1623 -18.5721
0.00 0.00 0.00 -1.3826 7.8017 0.0838 0.0000 0.0000 0.0000 -18.4012 -0.8622 -4.7860 1.3488 7.3523 20.7633 0.1358 -10.0283 -9.0992 0.1295 -2.3194 -6.3891 0.0000 0.0000 0.0000 18.8730 0.6016 -3.9938 -1.5707 -7.9080 22.4350 -0.4189 -7.0784 -16.8292 -0.4288 4.2025 -11.6472 -2.4616 -0.2352 8.1048 4.0716 -0.3222 -1.4893 5.7273 0.0096 -6.0866 -16.4052 -5.8320 -22.9021 9.5130 -4.9698 23.4316 5.5048 -2.4885 12.2236 -0.0000 0.0000 0.0000 -77.1002 -15.9044 25.9934 78.2113 -59.4683 -49.8089 -0.0000 -0.0000 35.9507 58.6757 24.4995 34.2701 -7.1250 0.0000 -0.0000 44.1150 66.0399 24.4017 -0.0000 0.0000 0.0000 81.5073 -9.6826 13.6458 -57.6446 55.6489 -32.3888 0.0000 0.0000 34.6144 -71.3171 23.7322 -49.9630 7.1250 -0.0000 -0.0000 -23.7408 20.2826 -32.7376
0.00 0.00 0.00 -2.4500 7.9773 -0.9155 0.0000 0.0000 0.0000 -16.4580 -1.8500 -5.1188 1.5265 7.8009 22.1110 0.2553 -8.3964 -10.0303 0.3668 -3.8903 -10.7681 0.0000 0.0000 0.0000 20.8096 -0.5342 -4.5203 -1.5845 -7.9409 22.5346 -0.3590 -6.3963 -15.4522 -0.5171 4.6088 -12.7960 -1.7364 0.8346 8.5213 2.8158 1.0923 -0.6799 3.7817 0.6373 -5.5876 -16.6465 -7.1432 -17.1185 14.2721 -9.0893 22.6242 6.7259 -3.9553 11.6950 0.0000 -0.0000 0.0000 -90.0373 0.2800 46.6413 67.5928 -58.0152 -40.7241 -0.0000 -0.0000 40.2174 49.8087 15.2740 17.3190 -7.1250 0.0000 -0.0000 23.0060 51.4288 3.8129 0.0000 -0.0000 0.0000 74.6848 25.6690 24.6041 -81.3201 59.7134 -52.4902 0.0000 0.0000 36.1196 -71.7191 23.0343 -49.8264 7.1250 -0.0000 -0.0000 -24.1761 19.8275 -33.3341
0.00 0.00 0.00 -2.0243 6.5993 -1.2967 0.0000 0.0000 0.0000 -16.8009 -1.0541 -5.1859 1.5254 7.7983 22.1031 0.2469 -8.0483 -9.7887 0.3679 -3.8963 -10.7851 0.0000 0.0000 0.0000 20.3276 0.0424 -5.0030 -1.7587 -8.3442 23.7644 -0.4039 -5.5705 -15.3427 -0.5039 4.5504 -12.6306 -2.0506 0.4568 9.4454 2.6431 0.5315 -0.1929 3.8530 0.3592 -5.5536 -15.4574 -6.4959 -17.1694 12.2107 -8.4292 28.2659 6.0824 -3.8367 13.6650 0.0000 0.0000 0.0000 -92.6671 -5.0254 63.5490 62.8674 -57.0268 -36.7370 -0.0000 -0.0000 5.9451 47.0952 23.4539 23.1825 -7.1250 0.0000 -0.0000 22.4018 61.0826 9.0337 0.0000 0.0000 0.0000 78.2965 20.3798 34.5008 -79.6702 59.5929 -51.0664 0.0000 0.0000 36.7051 -74.9689 21.4304 -53.6859 7.1250 -0.0000 -0.0000 -26.5968 21.8978 -37.7500
0.00 0.00 0.00 -0.5905 2.4747 3.7555 0.0000 0.0000 0.0000 -18.9193 -1.4983 -17.2665 2.2221 9.3141 26.7830 0.1632 -7.1266 -8.1710 0.1785 -2.7214 -7.5042 0.0000 0.0000 0.0000 16.7325 3.5966 -18.0741 -2.7512 -10.2810 29.8915 -0.4104 -1.2226 -12.6062 -0.7325 5.4680 -15.2484 -0.4237 0.6094 16.6675 4.8799 0.9702 5.5765 5.2332 0.4536 -3.4791 -15.5797 -6.1374 -16.5430 8.2145 -6.7522 31.1394 4.8622 -3.6674 14.3275 -0.0000 0.0000 0.0000 -98.3420 -21.0542 59.2248 38.8212 -47.3558 -17.5671 -0.0000 0.0000 -15.4343 51.1670 35.9630 36.1125 -7.1250 0.0000 -0.0000 39.2438 76.4636 29.8443 -0.0000 0.0000 0.0000 79.0542 12.6578 53.6714 -56.3315 55.2504 -31.3072 0.0000 0.0000 44.8038 -69.8948 27.2632 -51.3717 7.1250 -0.0000 -0.0000 -21.8152 23.1375 -30.2607
0.00 0.00 0.00 0.5029 8.2172 7.2017 0.0000 0.0000 0.0000 -18.9730 -6.4607 -29.4911 4.5824 12.8975 38.9858 0.0134 -12.4315 -8.9011 0.1285 -2.3110 -6.3658 0.0000 0.0000 0.0000 14.5186 1.9504 -31.0404 -5.3313 -13.7475 42.2351 -0.6127 -1.0428 -15.2003 -0.5904 4.9194 -13.6789 1.9127 0.7110 21.2498 6.2189 1.8908 4.5722 5.1785 0.9391 -7.0467 -16.5621 -6.7807 -17.6131 10.4352 -6.0798 -1.7410 5.4101 -2.5467 3.0726 -0.0000 0.0000 0.0000 -103.3922 -22.2593 66.7058 50.8584 -53.3359 -26.8612 -0.0000 0.0000 -13.4687 41.8893 34.6246 27.0044 -7.1250 0.0000 -0.0000 15.3565 72.3189 10.0347 -0.0000 0.0000 0.0000 78.6483 14.7123 48.1980 -76.4758 59.2975 -48.3154 0.0000 0.0000 39.6561 -70.7321 27.0670 -52.4677 7.1250 -0.0000 -0.0000 -22.3593 23.8095 -31.2210
0.00 0.00 0.00 0.2481 9.7102 4.5426 0.0000 0.0000 0.0000 -18.7084 -8.0454 -27.6147 5.1249 13.5231 41.3596 0.1147 -11.9440 -9.8955 0.0929 -1.9656 -5.4105 0.0000 0.0000 0.0000 14.7802 0.6112 -29.3279 -5.8244 -14.2559 44.2726 -0.7421 -1.0206 -16.6746 -0.5313 4.6706 -12.9713 2.2018 0.3484 21.8038 6.2662 1.5470 4.2636 5.1725 0.7763 -7.6447 -16.6015 -7.0227 -17.8815 10.0679 -6.3973 -0.0632 5.2450 -2.7437 3.6517 -0.0000 -0.0000 0.0000 -103.9904 -24.8998 68.1719 64.2446 -57.3388 -37.8945 -0.0000 0.0000 -9.3026 44.4205 30.5434 26.4740 -7.1250 0.0000 -0.0000 19.9297 68.5730 11.4410 -0.0000 -0.0000 0.0000 76.9580 21.7197 49.0471 -94.8346 59.9115 -64.1856 0.0000 0.0000 40.5113 -64.2688 25.4297 -41.7008 7.1250 -0.0000 -0.0000 -19.3408 15.3556 -25.0051
0.00 0.00 0.00 -0.2563 8.8066 2.7658 0.0000 0.0000 0.0000 -18.3648 -6.2726 -26.3481 5.4180 13.8396 42.5987 0.1793 -12.7016 -11.0991 0.0725 -1.7371 -4.7796 0.0000 0.0000 0.0000 15.3174 0.0324 -27.6235 -6.0129 -14.4409 45.0336 -0.8370 0.1252 -17.2523 -0.5649 4.8137 -13.3781 2.0160 1.0699 20.9143 6.3708 2.4284 3.8786 5.1485 1.2095 -7.6756 -16.9198 -7.3465 -17.1453 9.8830 -6.9161 0.8837 5.1825 -3.0472 3.9017 -0.0000 -0.0000 0.0000 -105.3139 -28.9286 69.9997 78.7880 -59.5196 -50.3058 -0.0000 0.0000 -4.4785 48.1820 27.1668 27.0369 -7.1250 0.0000 -0.0000 25.5477 65.8576 13.2432 -0.0000 -0.0000 0.0000 73.3252 29.0944 52.0416 -112.6247 57.9747 -79.4603 0.0000 0.0000 41.6557 -61.8610 3.8385 -7.1347 7.1250 -0.0000 -0.0000 -25.0227 -21.9650 -15.3389
0.00 0.00 0.00 -1.5620 9.3630 -0.9140 0.0000 0.0000 0.0000 -17.1955 -4.2355 -23.5574 5.9214 14.3517 44.6655 0.1826 -14.7272 -12.2924 0.0434 -1.3446 -3.6976 0.0000 0.0000 0.0000 16.5649 -2.6128 -24.2977 -6.2780 -14.6924 46.0875 -0.9825 1.2806 -18.3490 -0.6465 5.1434 -14.3181 3.1792 1.3777 19.5975 5.8546 3.0421 2.6168 3.7590 1.4703 -8.3093 -17.3516 -7.9266 -14.8793 10.7901 -8.1996 3.2939 5.4281 -3.7435 4.5375 0.0000 0.0000 0.0000 -108.2493 -42.5166 74.6733 99.0396 -59.6890 -67.8203 -0.0000 -0.0000 5.6869 46.7945 19.3583 19.4388 -7.1250 0.0000 -0.0000 20.7288 55.9190 5.7284 0.0000 0.0000 0.0000 64.9966 48.5192 35.8075 -115.3142 57.4345 -81.7339 0.0000 0.0000 52.1667 -106.2608 -20.7681 129.4402 7.1250 -0.0000 -0.0000 -121.2952 -61.0448 97.7634
0.00 0.00 0.00 -4.4543 8.6671 -9.9900 0.0000 0.0000 0.0000 -13.4682 0.6345 -9.8310 5.7990 14.2307 44.1695 0.4529 -17.6986 -16.3305 0.0164 -0.8259 -2.2699 0.0000 0.0000 0.0000 19.7831 -7.5820 -9.5316 -5.5770 -14.0055 43.2595 -1.4544 1.6052 -22.3416 -1.1215 6.7269 -18.9089 1.0943 2.6330 12.0937 4.5623 4.0397 -0.8164 3.4780 2.0342 -7.9355 -19.6493 -10.3479 -15.6480 13.4172 -11.7083 10.3226 6.1492 -5.3973 7.7171 0.0000 0.0000 0.0000 -123.6941 -66.9080 92.1162 98.3827 -59.7328 -67.2531 -0.0000 -0.0000 22.2084 56.3744 13.2793 19.0544 -7.1250 0.0000 -0.0000 29.8025 50.5057 4.3830 0.0000 0.0000 0.0000 29.9541 68.6015 4.0007 -126.7251 54.2339 -91.1890 0.0000 0.0000 44.9064 -83.9339 29.3932 -77.7826 7.1250 -0.0000 -0.0000 -31.0211 43.0309 -46.3078
0.00 0.00 0.00 -4.5375 9.4831 -8.1474 0.0000 0.0000 0.0000 -13.9207 -0.2769 -7.6338 4.2291 12.4592 37.3763 0.2806 -15.8394 -13.8692 0.0266 -1.0528 -2.8940 0.0000 0.0000 0.0000 20.3286 -8.0198 -7.4503 -3.9325 -12.0701 35.9804 -1.0878 0.6962 -19.4994 -0.6551 5.1770 -14.4140 1.4071 3.2380 10.2767 3.5354 4.7980 -2.0315 2.1305 2.3683 -8.1249 -19.7752 -11.7263 -17.3191 13.7171 -13.5027 12.3270 5.9157 -6.1672 9.0144 0.0000 -0.0000 0.0000 -138.4074 -70.0233 106.6584 89.0573 -59.9966 -59.1836 -0.0000 -0.0000 18.1735 55.9075 12.5630 17.8152 -7.1250 0.0000 -0.0000 28.7892 49.3180 3.3143 0.0000 -0.0000 0.0000 0.7428 69.7677 -29.2999 -114.7220 57.5598 -81.2344 0.0000 0.0000 44.1028 -90.4887 -30.9755 90.9494 7.1250 -0.0000 -0.0000 -37.4028 52.8873 -54.5715
0.00 0.00 0.00 -4.1309 9.7152 -7.7043 0.0000 0.0000 0.0000 -14.5058 -0.4253 -7.1209 3.9276 12.0635 35.9569 0.2860 -15.3309 -13.6382 0.0494 -1.4347 -3.9458 0.0000 0.0000 0.0000 20.0029 -7.9225 -6.8770 -3.6340 -11.6568 34.5284 -1.0326 0.4502 -19.0668 -0.4933 4.5032 -12.4968 1.4006 3.5766 10.1279 2.9635 5.2150 -2.4334 1.4545 2.5522 -8.4299 -19.9383 -11.8943 -16.7966 14.3526 -13.8910 11.9082 6.1099 -6.3218 8.9197 -0.0000 -0.0000 0.0000 -142.8600 -70.0908 111.6555 85.8277 -59.9341 -56.3875 -0.0000 -0.0000 14.8442 57.1841 9.6104 14.5148 -7.1250 0.0000 -0.0000 28.4068 45.2056 0.1572 -0.0000 -0.0000 0.0000 -10.4824 69.7496 -42.7896 -100.7766 59.5566 -69.3189 0.0000 0.0000 44.7756 -89.1491 29.8564 -88.2911 7.1250 -0.0000 -0.0000 -36.5188 50.6130 -53.8495
